<?xml version="1.0" encoding="UTF-8"?>
<svg width="1920px" height="1080px" viewBox="0 0 1920 1080" xmlns="http://www.w3.org/2000/svg" xmlns:xlink="http://www.w3.org/1999/xlink" version="1.1">
 <!-- Generated by Pixelmator Pro 2.1.3 -->
 <defs>
  <path id="Guess" d="M1808.913 324.173 C1808.913 350.722 1804.311 373.637 1795.106 392.919 1785.901 412.2 1773.305 428.09 1757.318 440.59 1741.331 453.089 1722.631 462.293 1701.217 468.204 1679.804 474.114 1656.792 477.069 1632.182 477.069 1622.686 477.069 1612.27 475.81 1600.934 473.291 1589.597 470.771 1578.116 467.622 1566.489 463.844 1554.861 460.065 1543.671 455.995 1532.915 451.635 1522.16 447.275 1512.617 443.157 1504.284 439.281 L1517.074 325.336 C1533.545 335.219 1551.809 342.728 1571.866 347.864 1591.923 352.999 1611.64 355.567 1631.019 355.567 1634.701 355.567 1639.158 355.421 1644.39 355.131 1649.622 354.84 1654.612 353.968 1659.36 352.514 1664.108 351.061 1668.129 348.881 1671.423 345.974 1674.717 343.067 1676.365 338.901 1676.365 333.475 1676.365 329.793 1675.202 326.644 1672.876 324.028 1670.551 321.412 1667.547 319.28 1663.865 317.633 1660.183 315.986 1656.017 314.726 1651.366 313.854 1646.715 312.982 1642.161 312.353 1637.704 311.965 1633.247 311.577 1629.081 311.384 1625.205 311.384 1621.33 311.384 1618.229 311.384 1615.904 311.384 1599.238 311.384 1584.075 308.768 1570.413 303.535 1556.751 298.303 1545.027 290.891 1535.241 281.299 1525.455 271.706 1517.849 260.079 1512.423 246.417 1506.997 232.755 1504.284 217.592 1504.284 200.926 1504.284 178.06 1508.886 157.567 1518.091 139.448 1527.296 121.329 1539.601 105.924 1555.007 93.231 1570.413 80.538 1588.095 70.8 1608.055 64.018 1628.015 57.235 1648.653 53.844 1669.97 53.844 1679.465 53.844 1689.251 54.183 1699.328 54.861 1709.405 55.54 1719.433 56.751 1729.413 58.495 1739.393 60.239 1749.131 62.467 1758.626 65.18 1768.122 67.893 1777.132 71.285 1785.659 75.354 L1774.613 193.369 C1761.436 188.912 1747.629 185.181 1733.192 182.178 1718.755 179.174 1704.657 177.672 1690.898 177.672 1688.379 177.672 1685.133 177.721 1681.161 177.818 1677.188 177.914 1673.022 178.205 1668.661 178.69 1664.301 179.174 1659.893 179.901 1655.436 180.87 1650.979 181.839 1647.006 183.147 1643.518 184.794 1640.03 186.441 1637.22 188.621 1635.088 191.334 1632.957 194.047 1631.988 197.245 1632.182 200.926 1632.375 205.19 1633.974 208.484 1636.978 210.809 1639.981 213.135 1643.857 214.831 1648.605 215.896 1653.353 216.962 1658.585 217.495 1664.301 217.495 1670.018 217.495 1675.686 217.35 1681.306 217.059 1686.926 216.768 1692.158 216.478 1697.003 216.187 1701.847 215.896 1705.82 215.848 1708.92 216.042 1724.423 217.011 1738.375 220.305 1750.778 225.925 1763.18 231.544 1773.693 239.005 1782.316 248.307 1790.94 257.608 1797.528 268.703 1802.082 281.589 1806.636 294.476 1808.913 308.671 1808.913 324.173 Z M1495.273 324.173 C1495.273 350.722 1490.67 373.637 1481.466 392.919 1472.261 412.2 1459.665 428.09 1443.678 440.59 1427.69 453.089 1408.99 462.293 1387.577 468.204 1366.164 474.114 1343.152 477.069 1318.541 477.069 1309.046 477.069 1298.63 475.81 1287.293 473.291 1275.957 470.771 1264.475 467.622 1252.848 463.844 1241.221 460.065 1230.03 455.995 1219.275 451.635 1208.52 447.275 1198.976 443.157 1190.643 439.281 L1203.433 325.336 C1219.905 335.219 1238.169 342.728 1258.226 347.864 1278.283 352.999 1298 355.567 1317.379 355.567 1321.06 355.567 1325.517 355.421 1330.75 355.131 1335.982 354.84 1340.972 353.968 1345.719 352.514 1350.467 351.061 1354.488 348.881 1357.783 345.974 1361.077 343.067 1362.724 338.901 1362.724 333.475 1362.724 329.793 1361.561 326.644 1359.236 324.028 1356.911 321.412 1353.907 319.28 1350.225 317.633 1346.543 315.986 1342.377 314.726 1337.726 313.854 1333.075 312.982 1328.521 312.353 1324.064 311.965 1319.607 311.577 1315.441 311.384 1311.565 311.384 1307.689 311.384 1304.589 311.384 1302.263 311.384 1285.598 311.384 1270.434 308.768 1256.772 303.535 1243.11 298.303 1231.387 290.891 1221.6 281.299 1211.814 271.706 1204.208 260.079 1198.782 246.417 1193.356 232.755 1190.643 217.592 1190.643 200.926 1190.643 178.06 1195.246 157.567 1204.451 139.448 1213.655 121.329 1225.961 105.924 1241.367 93.231 1256.772 80.538 1274.455 70.8 1294.415 64.018 1314.375 57.235 1335.013 53.844 1356.329 53.844 1365.825 53.844 1375.611 54.183 1385.688 54.861 1395.764 55.54 1405.793 56.751 1415.773 58.495 1425.753 60.239 1435.49 62.467 1444.986 65.18 1454.481 67.893 1463.492 71.285 1472.019 75.354 L1460.973 193.369 C1447.796 188.912 1433.989 185.181 1419.552 182.178 1405.114 179.174 1391.017 177.672 1377.258 177.672 1374.739 177.672 1371.493 177.721 1367.52 177.818 1363.548 177.914 1359.381 178.205 1355.021 178.69 1350.661 179.174 1346.252 179.901 1341.795 180.87 1337.338 181.839 1333.366 183.147 1329.878 184.794 1326.39 186.441 1323.58 188.621 1321.448 191.334 1319.316 194.047 1318.347 197.245 1318.541 200.926 1318.735 205.19 1320.334 208.484 1323.337 210.809 1326.341 213.135 1330.217 214.831 1334.964 215.896 1339.712 216.962 1344.944 217.495 1350.661 217.495 1356.378 217.495 1362.046 217.35 1367.666 217.059 1373.285 216.768 1378.518 216.478 1383.362 216.187 1388.207 215.896 1392.179 215.848 1395.28 216.042 1410.783 217.011 1424.735 220.305 1437.137 225.925 1449.54 231.544 1460.052 239.005 1468.676 248.307 1477.299 257.608 1483.888 268.703 1488.442 281.589 1492.996 294.476 1495.273 308.671 1495.273 324.173 Z M1178.435 238.133 C1178.435 254.992 1177.272 271.852 1174.947 288.711 1141.81 290.842 1108.866 294.282 1076.117 299.03 1043.367 303.778 1010.618 308.477 977.868 313.128 982.906 327.08 990.803 338.223 1001.558 346.556 1012.313 354.888 1025.151 359.055 1040.073 359.055 1047.824 359.055 1056.302 357.601 1065.507 354.695 1074.712 351.788 1083.868 348.154 1092.976 343.794 1102.084 339.434 1110.804 334.735 1119.137 329.696 1127.47 324.658 1134.64 320.104 1140.647 316.034 L1126.694 448.002 C1119.137 453.815 1110.95 458.757 1102.132 462.826 1093.315 466.896 1084.159 470.19 1074.663 472.709 1065.168 475.229 1055.576 477.069 1045.886 478.232 1036.197 479.395 1026.702 479.976 1017.4 479.976 998.215 479.976 980.678 477.36 964.787 472.128 948.897 466.896 934.509 459.58 921.622 450.182 908.735 440.783 897.447 429.689 887.758 416.899 878.069 404.109 870.027 390.157 863.632 375.042 857.237 359.927 852.392 343.94 849.098 327.08 845.804 310.221 844.157 293.168 844.157 275.921 844.157 257.899 845.804 239.877 849.098 221.855 852.392 203.833 857.382 186.49 864.068 169.824 870.754 153.158 879.183 137.704 889.357 123.461 899.531 109.218 911.4 96.767 924.965 86.109 938.53 75.451 953.887 67.118 971.037 61.111 988.187 55.104 1007.129 52.1 1027.864 52.1 1045.111 52.1 1060.856 54.474 1075.099 59.221 1089.343 63.969 1102.035 70.558 1113.178 78.987 1124.321 87.417 1134.01 97.445 1142.246 109.073 1150.482 120.7 1157.264 133.441 1162.593 147.297 1167.922 161.152 1171.895 175.783 1174.511 191.189 1177.127 206.595 1178.435 222.243 1178.435 238.133 Z M1062.164 223.018 C1062.164 217.592 1061.583 212.021 1060.42 206.304 1059.257 200.587 1057.368 195.404 1054.752 190.753 1052.136 186.102 1048.696 182.275 1044.433 179.271 1040.17 176.267 1034.841 174.766 1028.446 174.766 1020.694 174.766 1013.863 176.849 1007.953 181.015 1002.043 185.181 996.956 190.414 992.692 196.712 988.429 203.01 984.941 209.841 982.228 217.204 979.515 224.568 977.48 231.351 976.124 237.552 L1062.164 229.413 Z M841.25 63.727 C832.529 131.939 825.069 199.812 818.868 267.346 812.667 334.88 806.756 402.85 801.136 471.256 L681.959 479.976 687.191 435.212 C683.315 439.669 678.81 443.545 673.675 446.839 668.539 450.133 663.065 452.798 657.251 454.833 651.438 456.867 645.43 458.321 639.229 459.193 633.028 460.065 627.118 460.404 621.498 460.21 608.321 460.016 595.919 457.449 584.291 452.507 572.664 447.566 562.006 440.977 552.317 432.741 542.628 424.505 533.907 414.913 526.156 403.964 518.405 393.015 511.864 381.485 506.535 369.374 501.206 357.262 497.137 344.908 494.327 332.312 491.517 319.716 490.112 307.508 490.112 295.687 490.112 278.246 490.451 260.176 491.129 241.476 491.808 222.776 493.019 204.027 494.763 185.23 496.507 166.433 498.784 147.83 501.594 129.42 504.404 111.01 507.94 93.376 512.204 76.517 535.845 77.679 559.584 78.745 583.419 79.714 607.255 80.683 630.993 80.974 654.635 80.586 650.178 97.446 645.77 114.353 641.409 131.309 637.049 148.266 633.125 165.318 629.637 182.468 626.149 199.618 623.339 216.817 621.207 234.064 619.076 251.311 618.01 268.751 618.01 286.385 618.01 290.455 618.204 296.268 618.591 303.826 618.979 311.384 619.996 318.844 621.643 326.208 623.291 333.572 625.81 340.015 629.201 345.538 632.592 351.061 637.388 353.822 643.59 353.822 650.953 353.822 657.542 350.674 663.356 344.375 669.169 338.077 674.304 329.599 678.761 318.941 683.219 308.283 687.046 295.978 690.243 282.025 693.441 268.073 696.154 253.491 698.382 238.278 700.611 223.066 702.403 207.709 703.76 192.206 705.116 176.703 706.133 162.121 706.812 148.459 707.49 134.797 707.974 122.541 708.265 111.689 708.556 100.837 708.701 92.407 708.701 86.4 708.701 82.524 708.604 78.745 708.41 75.063 708.217 71.381 707.926 67.603 707.538 63.727 720.135 64.115 732.633 64.405 745.036 64.599 757.438 64.793 769.937 64.89 782.533 64.89 792.222 64.89 801.96 64.841 811.746 64.744 821.532 64.647 831.367 64.308 841.25 63.727 Z M472.672 413.702 C463.564 425.135 452.324 435.115 438.953 443.642 425.582 452.168 411.242 459.241 395.933 464.861 380.624 470.481 364.927 474.696 348.843 477.505 332.759 480.315 317.45 481.72 302.916 481.72 274.817 481.72 248.947 476.682 225.305 466.605 201.664 456.528 181.268 442.624 164.118 424.893 146.968 407.162 133.549 386.281 123.859 362.252 114.17 338.223 109.325 312.353 109.325 284.641 109.325 263.519 111.748 242.832 116.592 222.582 121.437 202.331 128.365 183.244 137.376 165.319 146.387 147.393 157.384 130.922 170.368 115.903 183.351 100.885 198.079 87.95 214.55 77.098 231.022 66.246 249.044 57.817 268.616 51.809 288.189 45.802 309.117 42.798 331.403 42.798 339.735 42.798 348.649 43.137 358.145 43.816 367.64 44.494 377.087 45.656 386.486 47.304 395.884 48.951 405.041 51.228 413.955 54.135 422.869 57.041 431.008 60.626 438.372 64.89 L430.233 175.928 C419.381 171.859 408.19 169.097 396.66 167.644 385.129 166.191 373.841 165.464 362.796 165.464 347.293 165.464 332.808 167.838 319.339 172.585 305.871 177.333 294.148 184.164 284.168 193.078 274.188 201.992 266.291 212.844 260.477 225.634 254.664 238.424 251.757 252.861 251.757 268.945 251.757 279.022 253.114 288.759 255.827 298.158 258.54 307.556 262.657 315.889 268.18 323.156 273.703 330.423 280.582 336.285 288.818 340.742 297.054 345.199 306.598 347.428 317.45 347.428 324.814 347.428 332.42 346.459 340.268 344.521 348.117 342.583 354.85 339.289 360.47 334.638 L361.633 311.965 291.87 310.802 295.359 223.599 C324.233 222.63 353.106 221.807 381.98 221.128 410.854 220.45 439.922 219.53 469.183 218.367 Z"/>
 </defs>
 <use id="Guess-1" xlink:href="#Guess" fill="#d5d5d5" fill-opacity="1" stroke="none"/>
 <use id="Guess-2" xlink:href="#Guess" fill="#ffffff" fill-opacity="1" stroke="none"/>
 <defs>
  <path id="stroke-path" d="M406.109 175.266 L418.328 178.281 435.641 184.078 444.641 61.313 427.547 52.813 410.641 46.828 392.922 42.406 371.281 39.016 347.969 37.203 324.984 36.875 304.234 38.328 288.094 40.797 268.766 45.5 250.297 51.844 239.609 56.406 229.25 61.469 212.844 71.047 197.375 82 182.969 94.234 169.656 107.656 162.141 116.344 155.047 125.359 144.281 140.953 138.344 150.781 132.859 160.953 124.703 178.406 116.594 200.266 110.734 221.203 106.516 242.656 104.938 254.578 103.891 266.594 103.328 287.297 104.031 303.047 105.781 318.406 108.578 333.391 112.438 347.984 117.359 362.172 123.234 375.891 132.313 393.016 140.125 405.172 148.734 416.609 159.797 429.078 171.891 440.516 183.047 449.453 194.906 457.516 207.438 464.766 220.688 471.156 234.563 476.641 248.938 481.031 263.781 484.313 279.109 486.5 294.859 487.594 311.359 487.578 328.781 486.375 346.813 483.953 365.156 480.313 383.188 475.484 399.484 469.953 416.641 462.734 430.344 455.75 443.484 447.859 455.734 439.031 466.75 429.25 478.703 415.953 475.063 212.172 414.328 214.281 289.578 217.766 285.625 316.703 355.313 317.859 354.609 331.5 353.188 332.563 349.25 334.859 340.688 338.188 334.563 339.656 326.734 340.891 314.547 341.359 309.359 340.938 304.266 340.078 299.594 338.844 295.25 337.203 286.875 332.594 283.234 329.969 278.563 325.875 274.344 321.281 270.688 316.375 267.438 310.938 263.984 303.563 261.578 296.516 259.563 288.078 258.5 281.484 257.891 274.219 257.75 267.609 258.156 258.984 259.109 251.078 260.641 243.531 262.75 236.203 265.406 229.328 268.672 222.563 272.281 216.344 277.719 208.656 283.891 201.641 290.844 195.266 298.531 189.531 306.5 184.766 315.438 180.516 325.016 177.016 334.922 174.391 345.219 172.578 355.781 171.641 368.781 171.547 381.359 172.156 395.875 173.609 Z M1030.063 485.656 L1052.125 483.469 1063.328 481.531 1074.438 478.984 1092.391 473.391 1102.938 469.063 1113.094 464.031 1122.719 458.219 1132.375 451.328 1147 312.906 1140.547 308.953 1124.938 319.094 1108.203 329.125 1095.375 335.938 1082.109 342.141 1068.75 347.313 1058.859 350.375 1049.734 352.297 1044.047 352.922 1038.813 353.047 1029.031 352.156 1019.984 349.828 1013.891 347.266 1006.156 342.516 999.125 336.406 993.188 329.484 988.078 321.406 986.563 317.953 1083.016 304.109 1107.609 300.922 1144.453 297.078 1180.328 294.328 1182.75 273.484 1183.766 260.594 1184.422 238.125 1183.672 217 1181.797 199.109 1179.906 187.234 1177.5 175.594 1172.922 158.719 1166.625 141.219 1163.188 133.328 1158.141 123.313 1152.531 113.703 1147.875 106.672 1137.75 93.688 1126.281 82.047 1115.688 73.359 1104.141 65.75 1089.172 58.172 1075.563 53.047 1061.078 49.281 1045.719 46.984 1029.516 46.109 1010.297 46.828 995.313 48.719 980.984 51.813 964.141 57.25 951.359 62.734 936.438 70.828 922.594 80.344 909.828 91.125 898.141 102.969 887.469 115.891 877.859 129.75 869.313 144.344 861.828 159.672 855.406 175.625 850.016 192.047 844.891 212.188 841.734 229.422 839.25 250.047 838.266 267.328 838.391 287.453 839.578 303.875 842.297 323.391 846.406 342.578 850.891 358.094 858.719 378.844 866.969 395.766 876.641 411.703 887.797 426.625 900.375 440.188 914.297 452.203 921.891 457.734 929.813 462.813 943.531 470.141 952.313 473.969 961.438 477.344 977.266 481.797 994.109 484.656 1011.859 485.922 Z M1643.828 482.859 L1657.5 482.016 1670.859 480.531 1683.891 478.391 1696.578 475.625 1708.953 472.203 1720.828 468.047 1732.125 463.156 1742.844 457.531 1753 451.188 1762.578 444.094 1771.484 436.234 1779.625 427.656 1784.703 421.438 1791.594 411.625 1797.719 401.109 1801.438 393.547 1806.141 381.75 1808.766 373.313 1811.766 360.266 1813.234 351.031 1814.578 336.719 1814.906 324.109 1814.063 308.031 1811.844 294.063 1808.188 280.875 1803.172 268.531 1796.859 257.266 1789.266 247.063 1780.391 238 1770.391 230.109 1759.25 223.375 1746.984 217.844 1733.797 213.734 1722.594 211.5 1713.766 210.391 1705.078 209.938 1674.672 211.328 1663.297 211.5 1655.813 211.031 1649.281 209.891 1644.047 208.078 1640.344 205.703 1638.906 203.703 1638.234 201.078 1638.297 198.75 1639.297 195.922 1641.391 193.406 1645.703 190.438 1651.719 188.063 1658.25 186.406 1667.875 184.828 1676.828 184.016 1698.516 183.828 1708.656 184.516 1718.922 185.734 1729.172 187.5 1745.109 191.047 1760.5 195.203 1779.891 201.344 1792.047 71.531 1772.891 63.5 1758.453 58.906 1736.172 53.641 1717.031 50.563 1695.922 48.641 1673.563 47.859 1655.641 48.344 1639.516 50.141 1623.625 53.266 1606.109 58.344 1589.297 64.969 1575.203 72.094 1562 80.391 1549.672 89.859 1538.406 100.438 1528.344 112.047 1521.563 121.5 1515.5 131.516 1510.141 142.109 1507.078 149.578 1504.469 157.266 1501.453 169.063 1499.969 177.344 1498.625 189.984 1498.281 200.953 1498.672 212.078 1499.672 221.359 1501.266 230.297 1503.484 238.984 1507.344 249.953 1510.922 257.813 1516.438 267.563 1524.469 278.531 1530.047 284.641 1536.109 290.25 1546.922 298.344 1554.125 302.641 1561.656 306.406 1569.609 309.672 1578 312.406 1592.5 315.609 1607.844 317.203 1629.469 317.469 1638.719 318.094 1650.125 319.75 1657.063 321.469 1660.703 322.813 1664.031 324.5 1666.656 326.344 1668.266 327.906 1669.469 329.625 1669.875 330.578 1670.328 333.219 1670.25 335.344 1669.953 337.125 1669.266 338.953 1667.469 341.359 1663.672 344.125 1657.438 346.813 1650.172 348.484 1643.969 349.141 1629.266 349.563 1614.844 348.969 1604.219 347.938 1589.813 345.703 1575.125 342.516 1564.469 339.594 1553.953 336.125 1540.266 330.641 1530.938 326.188 1512.109 315.734 1497.828 443 1518.953 452.359 1536.859 459.672 1566.813 470.281 1584.406 475.438 1597.484 478.688 1610.297 481.219 1618.594 482.328 1630.25 483.063 Z M1330.188 482.859 L1343.859 482.016 1357.219 480.531 1370.25 478.391 1382.938 475.625 1395.313 472.203 1407.188 468.047 1418.484 463.156 1429.203 457.531 1439.359 451.188 1448.938 444.094 1457.844 436.234 1466.016 427.625 1473.406 418.313 1477.969 411.594 1484.078 401.109 1487.781 393.594 1491.063 385.719 1495.094 373.406 1497.25 364.656 1499.594 351.078 1500.938 336.719 1501.266 324.109 1500.422 308.031 1498.203 294.063 1494.547 280.875 1489.531 268.531 1483.219 257.266 1475.625 247.063 1466.75 238 1456.75 230.109 1445.609 223.375 1433.344 217.844 1420.156 213.734 1408.953 211.5 1400.125 210.391 1391.453 209.938 1361.031 211.328 1349.656 211.5 1342.172 211.031 1335.641 209.891 1330.406 208.078 1326.703 205.703 1325.266 203.703 1324.594 201.078 1324.656 198.75 1325.656 195.922 1327.75 193.406 1332.063 190.438 1338.078 188.063 1344.609 186.406 1354.234 184.828 1363.188 184.016 1384.875 183.828 1395.016 184.516 1405.281 185.734 1415.531 187.5 1431.469 191.047 1446.859 195.203 1466.25 201.344 1478.406 71.531 1459.25 63.5 1444.813 58.906 1422.531 53.641 1403.391 50.563 1382.281 48.641 1359.922 47.859 1342 48.344 1325.875 50.141 1309.984 53.266 1292.469 58.344 1275.656 64.969 1261.563 72.094 1248.359 80.391 1236.031 89.859 1224.766 100.438 1214.703 112.047 1207.922 121.5 1201.859 131.516 1196.5 142.109 1193.438 149.578 1190.828 157.266 1187.813 169.063 1186.328 177.344 1184.984 189.984 1184.641 200.953 1185.031 212.078 1186.031 221.359 1187.625 230.297 1189.844 238.984 1193.703 249.953 1197.281 257.813 1202.797 267.563 1210.828 278.531 1216.406 284.641 1222.469 290.25 1233.281 298.344 1240.484 302.641 1248.016 306.406 1255.969 309.672 1264.359 312.406 1278.859 315.609 1294.203 317.203 1315.828 317.469 1325.078 318.094 1336.484 319.75 1343.422 321.469 1347.063 322.813 1350.391 324.5 1353.016 326.344 1354.625 327.906 1355.828 329.625 1356.234 330.578 1356.688 333.219 1356.609 335.125 1355.703 338.813 1354.813 340.359 1354.063 341.188 1350.031 344.125 1343.797 346.813 1336.531 348.484 1330.328 349.141 1315.625 349.563 1301.203 348.969 1290.578 347.938 1276.172 345.703 1261.484 342.516 1250.828 339.594 1240.313 336.125 1226.625 330.641 1217.297 326.188 1198.469 315.734 1184.188 443 1205.313 452.359 1223.219 459.672 1253.172 470.281 1270.766 475.438 1283.844 478.688 1296.656 481.219 1304.953 482.328 1316.609 483.063 Z M806.672 476.875 L817.984 344.016 817.969 344.016 828.438 229.953 836.469 153.781 848.047 57.359 837.328 57.953 837.328 57.938 815.203 58.703 773.172 58.891 701.156 57.625 702.688 83.578 702.453 103.797 701.047 143.172 699.172 174.625 699.156 174.625 696.953 200.406 696.969 200.406 693.625 229.031 689.25 256.969 685.016 277.906 679.891 297.766 675.578 310.688 670.719 322.203 666.016 330.859 660.344 338.719 657.531 341.734 654.859 343.969 649.906 346.672 647.141 347.453 644.031 347.813 641.734 347.672 639.703 347.172 638.109 346.391 636.531 345.172 635.047 343.469 632.766 339.672 629.156 330.969 626.641 320.844 624.859 307.672 624.016 287.719 624.313 270.031 625.484 250.922 627.172 234.703 630.297 212.484 633.609 193.313 637.484 174.172 637.5 174.172 643.297 148.563 662.375 74.563 623.625 74.719 597.078 74.203 507.516 70.328 502.547 91.266 498.531 111.313 495.125 131.984 491.391 159.953 488.781 184.672 486.781 209.469 485.563 230.688 484.5 262.125 484.109 298.063 484.922 312 486.172 321.563 488.453 333.609 491.547 345.719 494.578 355.328 500 369.422 504.25 378.766 508.984 387.891 516.875 401.031 525.875 413.703 536.625 426.188 547.5 436.531 559.234 445.609 571.891 453.266 585.359 459.422 592.563 461.875 599.922 463.781 612.313 465.719 620.078 466.188 629.375 466.172 643.656 464.578 650.984 462.984 658.078 460.906 664.984 458.266 671.703 454.984 679.422 450 675.156 486.5 Z M984.766 228.391 L989.375 215.453 994.203 205.625 998.297 199.141 1004.875 191.391 1011.344 185.984 1016.688 183.047 1023.219 181.188 1026.547 180.828 1031.219 180.906 1036.828 182.109 1039.531 183.313 1041.484 184.578 1046.266 189.047 1049.938 194.5 1053.328 202.813 1055.375 212.484 1056.156 223.25 1056.156 223.969 984.125 230.781 Z"/>
 </defs>
 <use id="Guess-3" stroke="#191919" stroke-opacity="1" stroke-linecap="round" fill="none" stroke-width="12" xlink:href="#stroke-path"/>
 <defs>
  <path id="The" d="M580.162 613.857 C580.162 621.189 579.656 628.521 578.645 635.853 564.234 636.78 549.907 638.276 535.664 640.341 521.421 642.406 507.179 644.449 492.936 646.472 495.127 652.54 498.562 657.386 503.239 661.01 507.916 664.634 513.5 666.445 519.989 666.445 523.36 666.445 527.047 665.813 531.05 664.549 535.053 663.285 539.035 661.705 542.996 659.809 546.957 657.912 550.75 655.869 554.374 653.678 557.997 651.486 561.116 649.506 563.728 647.736 L557.66 705.128 C554.374 707.657 550.813 709.806 546.978 711.576 543.144 713.345 539.162 714.778 535.032 715.874 530.903 716.969 526.731 717.77 522.517 718.275 518.303 718.781 514.174 719.034 510.129 719.034 501.785 719.034 494.158 717.896 487.247 715.621 480.337 713.345 474.079 710.164 468.475 706.076 462.871 701.989 457.961 697.164 453.748 691.602 449.534 686.04 446.036 679.972 443.255 673.398 440.474 666.825 438.367 659.872 436.934 652.54 435.502 645.208 434.785 637.792 434.785 630.291 434.785 622.453 435.502 614.616 436.934 606.778 438.367 598.94 440.537 591.397 443.445 584.15 446.352 576.902 450.018 570.181 454.443 563.987 458.867 557.792 464.029 552.378 469.929 547.742 475.828 543.107 482.507 539.483 489.965 536.871 497.424 534.258 505.662 532.952 514.679 532.952 522.18 532.952 529.027 533.984 535.222 536.049 541.416 538.114 546.936 540.979 551.782 544.645 556.628 548.311 560.842 552.672 564.424 557.729 568.005 562.786 570.955 568.327 573.273 574.353 575.59 580.378 577.318 586.741 578.456 593.441 579.593 600.141 580.162 606.946 580.162 613.857 Z M529.596 607.284 C529.596 604.924 529.344 602.501 528.838 600.015 528.332 597.529 527.51 595.274 526.373 593.251 525.235 591.229 523.739 589.564 521.885 588.258 520.031 586.952 517.713 586.299 514.932 586.299 511.561 586.299 508.59 587.205 506.02 589.017 503.45 590.829 501.237 593.104 499.383 595.843 497.529 598.582 496.012 601.553 494.832 604.755 493.652 607.958 492.768 610.907 492.178 613.604 L529.596 610.065 Z M427.074 710.943 L363.867 713.977 363.361 660.63 334.286 660.63 332.516 716 275.882 716 280.686 538.261 340.859 541.042 337.067 631.808 365.131 631.808 365.384 536.744 423.029 538.261 Z M270.067 535.227 L268.803 588.827 231.132 590.344 221.524 710.185 168.177 712.966 168.43 593.125 130.758 595.148 132.275 535.48 Z"/>
 </defs>
 <use id="The-1" xlink:href="#The" fill="#d5d5d5" fill-opacity="1" stroke="none"/>
 <use id="The-2" xlink:href="#The" fill="#ffffff" fill-opacity="1" stroke="none"/>
 <defs>
  <path id="stroke-path-1" d="M518.281 724.734 L528.25 723.516 536.594 721.672 544.781 719.031 553.391 715.078 563.328 708.609 570.078 644.656 567.313 642.922 584.125 641.375 585.844 623.875 586.156 613.844 585.813 604.406 584.594 593.75 582.453 583.375 580.188 575.797 576.344 566.297 572.75 559.547 568.563 553.219 563.766 547.406 558.328 542.203 552.297 537.656 545.672 533.859 540.781 531.688 533.234 529.203 527.688 528 519.203 527.063 512.859 526.969 505.859 527.359 499.109 528.281 492.578 529.766 483.469 532.922 472.563 538.563 466.234 543.016 460.469 547.969 454.266 554.453 450.453 559.266 446.953 564.297 442.391 572.109 439.672 577.703 436.219 586.234 433.438 595.078 431.297 604.219 430.672 608.797 428.875 532.422 359.391 530.594 359.141 625.813 343.328 625.813 347.109 535.328 276.141 532.047 276.203 529.219 126.422 529.5 124.594 601.5 162.406 599.469 162.156 719.297 227.078 715.906 236.688 596.141 273.141 594.656 269.703 722 338.328 722 340.094 666.641 357.422 666.641 357.922 720.281 433.203 716.672 431.797 657.063 432.672 660.844 435.156 669.109 438.297 677.078 442.063 684.672 446.484 691.828 451.609 698.547 457.375 704.656 463.797 710.109 470.875 714.844 478.516 718.734 485.375 721.344 492.688 723.313 501.922 724.703 510.109 725.047 Z M500.906 605.688 L502.422 602.453 504.625 598.844 507.094 595.922 509.031 594.266 510.969 593.125 512.984 592.5 515.156 592.344 517.313 592.703 518.438 593.266 520.109 594.781 521.438 596.797 522.391 599.125 523.344 603.656 523.406 604.641 500.563 606.797 Z M515.797 660.109 L512.344 659.219 509.359 657.875 507.281 656.547 504.625 654.25 502.313 651.531 502.125 651.25 549.797 644.531 558.875 643.688 547.281 650.844 536.219 656.281 526.109 659.656 519.266 660.422 Z"/>
 </defs>
 <use id="The-3" stroke="#191919" stroke-opacity="1" stroke-linecap="round" fill="none" stroke-width="12" xlink:href="#stroke-path-1"/>
 <defs>
  <path id="WORD" d="M837.443 835.074 L812.135 686.127 786.826 824.287 668.994 828.436 620.037 545.063 722.932 535.934 743.676 708.115 771.475 535.934 852.379 535.934 884.74 710.192 901.336 535.934 1003.817 545.063 955.274 832.584 837.443 835.074 Z M1572.637 831.34 C1566.137 831.34 1559.776 831.168 1553.553 830.823 1547.329 830.477 1540.967 829.957 1534.467 829.266 L1540.276 550.871 C1555.488 546.031 1571.152 542.607 1587.264 540.602 1603.376 538.596 1619.383 537.594 1635.287 537.594 1655.064 537.594 1673.25 540.567 1689.846 546.514 1706.442 552.461 1720.755 561.036 1732.787 572.239 1744.819 583.441 1754.189 597.132 1760.897 613.313 1767.604 629.494 1770.957 647.819 1770.957 668.287 1770.957 687.649 1768.469 705.108 1763.49 720.666 1758.511 736.225 1751.561 750.055 1742.641 762.156 1733.72 774.258 1723.108 784.664 1710.799 793.377 1698.49 802.09 1685.006 809.247 1670.346 814.848 1655.686 820.449 1640.093 824.598 1623.567 827.295 1607.04 829.992 1590.063 831.34 1572.637 831.34 Z M1427.424 830.926 L1395.477 742.553 1369.754 743.383 1366.02 829.68 1276.817 829.68 C1277.508 798.148 1278.165 766.756 1278.787 735.5 1279.41 704.245 1280.137 672.851 1280.967 641.319 1281.244 625.414 1281.519 609.648 1281.795 594.02 1282.072 578.392 1282.625 562.627 1283.455 546.723 1293.136 543.127 1302.68 540.152 1312.084 537.801 1321.488 535.45 1330.927 533.619 1340.401 532.305 1349.874 530.991 1359.484 530.092 1369.234 529.608 1378.985 529.124 1388.977 528.881 1399.211 528.881 1414.977 528.881 1430.224 531.06 1444.953 535.416 1459.682 539.773 1472.716 546.307 1484.057 555.02 1495.397 563.733 1504.49 574.59 1511.336 587.59 1518.182 600.59 1521.606 615.732 1521.606 633.02 1521.606 643.807 1520.672 653.591 1518.805 662.373 1516.938 671.155 1513.999 679.211 1509.988 686.541 1505.978 693.871 1500.792 700.648 1494.43 706.871 1488.068 713.095 1480.392 719.043 1471.402 724.713 L1520.776 812.67 1427.424 830.926 Z M1132.434 825.117 C1119.987 825.117 1108.127 823.527 1096.856 820.346 1085.584 817.165 1075.04 812.704 1065.221 806.965 1055.401 801.226 1046.515 794.311 1038.563 786.221 1030.61 778.13 1023.834 769.141 1018.233 759.252 1012.631 749.364 1008.276 738.749 1005.164 727.408 1002.052 716.068 1000.496 704.244 1000.496 691.936 1000.496 679.904 1001.949 668.113 1004.854 656.565 1007.758 645.017 1011.942 634.127 1017.404 623.893 1022.867 613.659 1029.47 604.255 1037.215 595.68 1044.96 587.105 1053.638 579.706 1063.25 573.483 1072.862 567.259 1083.269 562.419 1094.471 558.961 1105.673 555.504 1117.497 553.776 1129.943 553.776 1149.997 553.776 1168.288 556.886 1184.815 563.11 1201.341 569.333 1215.447 578.22 1227.133 589.768 1238.819 601.316 1247.878 615.284 1254.309 631.672 1260.74 648.061 1263.955 666.35 1263.955 686.541 1263.955 699.126 1262.504 711.263 1259.6 722.949 1256.695 734.636 1252.512 745.596 1247.049 755.83 1241.586 766.064 1234.947 775.432 1227.133 783.938 1219.319 792.443 1210.537 799.739 1200.787 805.824 1191.037 811.91 1180.422 816.647 1168.943 820.035 1157.465 823.424 1145.296 825.117 1132.434 825.117 Z M1629.893 752.096 C1638.191 750.851 1645.729 748.119 1652.506 743.901 1659.283 739.682 1665.126 734.496 1670.035 728.342 1674.945 722.188 1678.747 715.342 1681.443 707.805 1684.14 700.268 1685.628 692.488 1685.904 684.467 L1685.904 681.563 C1686.043 674.095 1685.246 666.904 1683.518 659.989 1681.789 653.074 1678.955 646.954 1675.014 641.629 1671.072 636.305 1666.058 632.018 1659.973 628.768 1653.888 625.518 1646.628 623.753 1638.192 623.477 L1629.893 752.096 Z M1129.943 738.819 C1136.444 738.819 1142.286 737.539 1147.473 734.981 1152.659 732.422 1157.051 728.964 1160.647 724.608 1164.242 720.251 1167.007 715.239 1168.943 709.569 1170.88 703.898 1171.848 698.021 1171.848 691.936 1171.848 685.989 1170.985 680.215 1169.256 674.614 1167.527 669.012 1165.003 664.034 1161.684 659.678 1158.365 655.322 1154.25 651.795 1149.34 649.098 1144.43 646.401 1138.796 645.053 1132.434 645.053 1125.934 645.053 1120.125 646.227 1115.008 648.578 1109.891 650.929 1105.499 654.145 1101.834 658.225 1098.169 662.305 1095.37 667.077 1093.434 672.539 1091.497 678.002 1090.529 683.776 1090.529 689.862 1090.529 695.67 1091.358 701.479 1093.018 707.287 1094.677 713.096 1097.167 718.351 1100.486 723.053 1103.806 727.755 1107.921 731.559 1112.83 734.463 1117.74 737.367 1123.443 738.819 1129.943 738.819 Z M1372.242 679.074 L1377.221 679.074 C1383.168 679.074 1389.219 678.313 1395.373 676.791 1401.527 675.27 1407.059 672.919 1411.969 669.739 1416.878 666.558 1420.89 662.477 1424.002 657.498 1427.114 652.52 1428.668 646.573 1428.668 639.658 1428.668 633.85 1427.874 628.526 1426.283 623.686 1424.693 618.845 1422.342 614.662 1419.231 611.135 1416.119 607.608 1412.246 604.842 1407.613 602.836 1402.98 600.831 1397.552 599.828 1391.328 599.828 1388.562 599.828 1385.866 600.002 1383.238 600.348 1380.611 600.694 1378.052 601.211 1375.563 601.903 L1372.242 679.074 Z"/>
 </defs>
 <use id="WORD-1" xlink:href="#WORD" fill="#d5d5d5" fill-opacity="1" stroke="none"/>
 <use id="WORD-2" xlink:href="#WORD" fill="#ffffff" fill-opacity="1" stroke="none"/>
 <defs>
  <path id="stroke-path-2" d="M1528.703 817.234 L1528.344 834.813 1553.219 836.828 1572.641 837.344 1595.625 836.563 1608.594 835.406 1621.359 833.734 1632.391 831.828 1644.719 829.109 1665.313 823.063 1676.688 818.797 1684.938 815.219 1692.984 811.266 1703.234 805.516 1713.063 799.141 1720.172 793.875 1729 786.359 1735.25 780.234 1741.109 773.734 1747.484 765.734 1753.281 757.172 1757.813 749.422 1761.891 741.281 1766.609 729.969 1769.672 720.969 1772.234 711.578 1774.234 701.797 1775.688 691.641 1776.578 681.094 1776.938 670.141 1776.703 658.547 1775.734 647.25 1774.656 639.875 1772.438 629.266 1768.313 615.828 1761.484 600.391 1758.188 594.438 1752.891 586.219 1748.938 580.922 1742.594 573.547 1733.234 564.578 1720.266 554.859 1705.922 546.75 1690.25 540.281 1673.453 535.563 1655.797 532.688 1640.969 531.672 1620.094 531.891 1595.719 533.609 1577.281 535.953 1559.109 539.484 1534.359 546.266 1528.766 814.656 1479.281 726.5 1489.031 719.625 1497.328 712.422 1502.328 707.359 1508.859 699.469 1512.703 693.781 1516.063 687.906 1520.219 678.734 1522.5 672.109 1525.031 661.906 1526.688 650.938 1527.5 639.219 1527.516 627.984 1526.75 618.234 1525.219 608.891 1522.922 600.031 1520.922 594.234 1517.313 586.078 1509.969 573.734 1501.219 562.656 1491.047 552.922 1479.609 544.563 1467.188 537.578 1453.734 531.953 1436.547 527.016 1418.875 524 1403.813 522.938 1380.094 523.172 1355.984 524.5 1334.125 527.172 1316.031 530.703 1297.922 535.5 1277.609 542.375 1275.906 587.984 1270.688 835.688 1371.766 835.688 1375.516 749.219 1391.313 748.703 1423.531 837.813 Z M960.359 838.484 L1010.813 539.672 895.922 529.438 882.828 667.016 857.359 529.938 766.359 529.938 744.531 665.156 728.188 529.453 613.016 539.672 663.969 834.625 791.844 830.125 811.906 720.672 832.391 841.188 Z M1141.125 830.875 L1150.813 829.969 1157.984 828.828 1167.281 826.75 1181.563 822.109 1190.031 818.484 1198.156 814.359 1209.563 807.234 1216.797 801.844 1223.578 795.984 1230 789.672 1236.016 782.922 1241.547 775.844 1246.641 768.422 1251.25 760.656 1255.406 752.578 1259.063 744.219 1262.203 735.578 1264.828 726.672 1266.969 717.469 1269.094 703.484 1269.797 693.844 1269.938 684.516 1268.781 665.703 1265.656 647.891 1261.703 634.344 1255.125 618.672 1250.328 609.844 1244.969 601.578 1239.031 593.859 1232.5 586.641 1225.391 580.016 1217.75 573.953 1209.594 568.5 1200.828 563.609 1185.297 556.891 1168.563 551.953 1157.906 549.906 1146.984 548.531 1135.719 547.859 1126.188 547.828 1109.781 549.297 1100.516 551.109 1090.531 553.906 1081.938 557.047 1073.688 560.703 1065.734 564.922 1058.109 569.688 1050.828 574.922 1043.938 580.609 1037.406 586.75 1031.219 593.375 1022.859 603.859 1017.766 611.344 1012.094 621.078 1007.156 631.266 1003.75 639.734 1000.859 648.422 998.469 657.359 996.625 666.453 995.344 675.656 994.641 684.938 994.5 694.344 994.953 703.813 995.859 712 997.469 721.156 999.984 731.188 1002.781 739.859 1006.063 748.234 1009.875 756.375 1016.406 767.906 1021.391 775.25 1026.828 782.234 1032.734 788.844 1039.063 795.078 1045.766 800.844 1052.828 806.156 1060.25 811.016 1068.031 815.406 1076.094 819.266 1084.438 822.641 1096.313 826.438 1105.344 828.547 1114.563 830.031 1123.984 830.906 1132.422 831.125 Z M1381.359 606.891 L1384.891 606.219 1392.313 605.859 1399.797 606.688 1406 608.734 1411.016 611.734 1415.172 615.703 1418.406 620.531 1420.828 626.453 1421.969 631.328 1422.578 636.813 1422.547 642.469 1422.016 646.328 1420.656 650.859 1419.125 653.922 1416.141 658.109 1413.734 660.719 1410.938 663.109 1406.156 666.234 1402.719 667.969 1397 670.125 1390.703 671.703 1384.594 672.656 1378.516 672.859 Z M1643.766 630.063 L1645.375 630.219 1652.547 632.078 1658.141 634.641 1663.547 638.297 1668.125 642.688 1672.031 647.953 1675.094 653.797 1677.719 661.609 1678.906 667.406 1679.75 675.063 1679.891 684.234 1679.328 691.125 1678.406 696.484 1676.219 704.531 1673.109 712.234 1670.75 716.703 1666.063 723.672 1662.828 727.578 1656.922 733.266 1652.75 736.531 1647.641 739.813 1641.563 742.75 1636.391 744.484 Z M1124.922 732.453 L1121.047 731.578 1116.938 729.891 1113.672 727.891 1109.438 724.359 1107.047 721.781 1103.828 717.219 1101.156 712.172 1099.047 706.531 1097.578 700.703 1096.75 694.844 1096.547 688.875 1097.031 682.953 1098.234 677.281 1100.141 671.906 1102.594 667.219 1105.75 662.875 1109.375 659.234 1113.594 656.141 1117.453 654.094 1121.734 652.484 1127.297 651.359 1132.359 651.078 1137.391 651.406 1140.797 652.109 1145.781 654.016 1148.703 655.719 1152.813 658.891 1155.266 661.344 1158.453 665.516 1161.125 670.25 1163.203 675.406 1164.734 681.141 1165.609 686.984 1165.828 691.938 1165.578 697.094 1165.031 700.781 1163.563 706.688 1161.391 712.25 1159.703 715.484 1156.578 720.094 1154.266 722.734 1150.141 726.359 1147.344 728.219 1142.266 730.703 1138.75 731.797 1135.078 732.5 1130 732.813 Z"/>
 </defs>
 <use id="WORD-3" stroke="#191919" stroke-opacity="1" stroke-linecap="round" fill="none" stroke-width="12" xlink:href="#stroke-path-2"/>
 <defs>
  <path id="Rectangle" d="M614 1041 L1851 1041 1851 876 614 876 Z"/>
 </defs>
 <use id="Rectangle-1" xlink:href="#Rectangle" fill="#ffffff" fill-opacity="1" stroke="none"/>
 <defs>
  <path id="stroke-path-3" d="M1857 870 L608 870 608 1047 1857 1047 Z"/>
 </defs>
 <use id="Rectangle-2" stroke="#191919" stroke-opacity="1" stroke-linecap="round" fill="none" stroke-width="12" xlink:href="#stroke-path-3"/>
 <defs>
  <path id="Rectangle-3" d="M219 1041 L453 1041 453 807 219 807 Z"/>
 </defs>
 <use id="Rectangle-4" xlink:href="#Rectangle-3" fill="#ffffff" fill-opacity="1" stroke="none"/>
 <defs>
  <path id="stroke-path-4" d="M459 801 L213 801 213 1047 459 1047 Z"/>
 </defs>
 <use id="Rectangle-5" stroke="#191919" stroke-opacity="1" stroke-linecap="round" fill="none" stroke-width="12" xlink:href="#stroke-path-4"/>
 <path id="Ellipse" d="M398 924.5 C398 889.982 370.018 862 335.5 862 300.982 862 273 889.982 273 924.5 273 959.018 300.982 987 335.5 987 370.018 987 398 959.018 398 924.5 Z" fill="#191919" fill-opacity="1" stroke="none"/>
</svg>
